<svg xmlns="http://www.w3.org/2000/svg" viewBox="0 0 1200 630">
  <defs>
    <linearGradient id="latencyGradient" x1="0%" y1="0%" x2="0%" y2="100%">
      <stop offset="0%" stop-color="#111827" />
      <stop offset="100%" stop-color="#1f0f2e" />
    </linearGradient>
    <linearGradient id="latencyLineFast" x1="0%" y1="0%" x2="100%" y2="100%">
      <stop offset="0%" stop-color="#00bcd4" />
      <stop offset="100%" stop-color="#18ffff" />
    </linearGradient>
    <linearGradient id="latencyLineDeep" x1="0%" y1="0%" x2="100%" y2="100%">
      <stop offset="0%" stop-color="#ff4081" />
      <stop offset="100%" stop-color="#ff1744" />
    </linearGradient>
    <linearGradient id="latencyFill" x1="0%" y1="0%" x2="100%" y2="0%">
      <stop offset="0%" stop-color="rgba(255, 23, 68, 0.35)" />
      <stop offset="100%" stop-color="rgba(0, 188, 212, 0.35)" />
    </linearGradient>
  </defs>
  <rect width="1200" height="630" fill="url(#latencyGradient)" />
  <g opacity="0.75">
    <circle cx="980" cy="140" r="140" fill="#ff1744" fill-opacity="0.18" />
    <circle cx="220" cy="520" r="210" fill="#00e5ff" fill-opacity="0.14" />
  </g>
  <text x="120" y="120" fill="#ffffff" font-family="'Rajdhani', 'Segoe UI', sans-serif" font-size="62" font-weight="600">
    Designing Shannon for Predictable Latency
  </text>
  <text x="120" y="170" fill="rgba(255,255,255,0.7)" font-family="'Rajdhani', 'Segoe UI', sans-serif" font-size="26">
    Mode budgets and routing heuristics that keep deep research steady.
  </text>
  <rect x="120" y="220" width="960" height="340" rx="26" fill="rgba(0,0,0,0.35)" stroke="rgba(255,255,255,0.12)" />
  <g transform="translate(180 260)">
    <rect width="50" height="260" fill="rgba(255,255,255,0.04)" />
    <rect x="200" width="50" height="260" fill="rgba(255,255,255,0.04)" />
    <rect x="400" width="50" height="260" fill="rgba(255,255,255,0.04)" />
    <rect x="600" width="50" height="260" fill="rgba(255,255,255,0.04)" />
    <rect x="800" width="50" height="260" fill="rgba(255,255,255,0.04)" />
    <polyline points="0,160 150,140 300,130 450,145 600,150 750,180 900,200"
      fill="none" stroke="url(#latencyLineFast)" stroke-width="6" stroke-linecap="round" />
    <polyline points="0,220 150,210 300,205 450,190 600,170 750,160 900,150"
      fill="none" stroke="url(#latencyLineDeep)" stroke-width="6" stroke-linecap="round" />
    <polygon points="0,220 150,210 300,205 450,190 600,170 750,160 900,150 900,260 0,260"
      fill="url(#latencyFill)" opacity="0.2" />
    <text x="20" y="245" fill="rgba(255,255,255,0.6)" font-size="20" font-family="'Rajdhani', 'Segoe UI', sans-serif">0.0s</text>
    <text x="820" y="245" fill="rgba(255,255,255,0.6)" font-size="20" font-family="'Rajdhani', 'Segoe UI', sans-serif">2.8s</text>
    <text x="10" y="40" fill="rgba(255,255,255,0.65)" font-size="24" font-family="'Rajdhani', 'Segoe UI', sans-serif">
      Latency envelopes · fast vs deliberate routing
    </text>
  </g>
  <g transform="translate(150 590)">
    <circle cx="0" cy="0" r="10" fill="url(#latencyLineFast)" />
    <text x="20" y="6" fill="rgba(255,255,255,0.7)" font-family="'Rajdhani', 'Segoe UI', sans-serif" font-size="20">
      Fast / Balanced
    </text>
    <circle cx="260" cy="0" r="10" fill="url(#latencyLineDeep)" />
    <text x="280" y="6" fill="rgba(255,255,255,0.7)" font-family="'Rajdhani', 'Segoe UI', sans-serif" font-size="20">
      Deep Research
    </text>
  </g>
</svg>
